<?xml version="1.0" encoding="UTF-8" standalone="no"?>
<svg
   xmlns:dc="http://purl.org/dc/elements/1.1/"
   xmlns:cc="http://creativecommons.org/ns#"
   xmlns:rdf="http://www.w3.org/1999/02/22-rdf-syntax-ns#"
   xmlns:svg="http://www.w3.org/2000/svg"
   xmlns="http://www.w3.org/2000/svg"
   xmlns:sodipodi="http://sodipodi.sourceforge.net/DTD/sodipodi-0.dtd"
   xmlns:inkscape="http://www.inkscape.org/namespaces/inkscape"
   inkscape:version="1.0.1 (3bc2e813f5, 2020-09-07)"
   sodipodi:docname="cyber-logo.svg"
   id="svg63"
   viewBox="0 0 64 64"
   version="1.1"
   height="128"
   width="128">
  <sodipodi:namedview
     inkscape:current-layer="svg63"
     inkscape:window-maximized="1"
     inkscape:window-y="30"
     inkscape:window-x="0"
     inkscape:cy="63.611612"
     inkscape:cx="58.779425"
     inkscape:zoom="5.9609375"
     showgrid="false"
     id="namedview65"
     inkscape:window-height="1312"
     inkscape:window-width="2160"
     inkscape:pageshadow="2"
     inkscape:pageopacity="0"
     guidetolerance="10"
     gridtolerance="10"
     objecttolerance="10"
     borderopacity="1"
     bordercolor="#666666"
     pagecolor="#ffffff"
     inkscape:document-rotation="0" />
  <metadata
     id="metadata2">
    <rdf:RDF>
      <cc:Work
         rdf:about="">
        <dc:format>image/svg+xml</dc:format>
        <dc:type
           rdf:resource="http://purl.org/dc/dcmitype/StillImage" />
        <dc:title />
      </cc:Work>
    </rdf:RDF>
  </metadata>
  <defs
     id="defs39">
    <style
       id="style14"
       type="text/css" />
    <style
       id="style16"
       type="text/css" />
  </defs>
  <!-- color: #eeeeee -->
  <circle
     id="circle41"
     fill="#5e4aa6"
     r="0"
     cy="-1241.6"
     cx="-1248.7" />
  <circle
     id="circle43"
     fill-rule="evenodd"
     fill="#5e4aa6"
     r="0"
     cy="23.855"
     cx="-149.15" />
  <g
     id="g14"
     transform="matrix(0.11429166,0,0,0.10742181,2.741361,4.5000013)">
    <path
       d="M 233.431,195.5 403.325,25.607 C 412.774,16.157 406.082,0 392.718,0 H 209.342 C 202.578,0 196.65,4.527 194.871,11.053 L 144.567,195.5 Z"
       fill="#555af5"
       id="path2" />
    <path
       d="M 392.718,0 H 209.343 c -3.199,0 -6.203,1.022 -8.678,2.779 L 313.409,115.523 403.325,25.607 C 412.775,16.157 406.082,0 392.718,0 Z"
       fill="#660ef1"
       id="path4" />
    <path
       d="M 357.841,231.046 492.189,96.697 C 501.638,87.248 494.946,71.09 481.582,71.09 H 275.19 c -3.978,0 -7.794,1.58 -10.607,4.393 L 144.567,195.5 85.32,165.877 c -6.766,-3.383 -14.993,-1.198 -19.189,5.096 l -48.199,72.298 c -6.646,9.968 0.5,23.32 12.481,23.32 h 78.609 l 14.354,43.062 c 2.042,6.125 7.774,10.257 14.23,10.257 h 131.371 l 187.667,187.667 c 9.449,9.449 25.607,2.757 25.607,-10.607 V 327.629 c 0,-4.844 -2.339,-9.39 -6.281,-12.206 z"
       fill="#64c3ff"
       id="path6" />
    <path
       d="M 481.582,71.091 H 275.19 c -2.167,0 -4.279,0.484 -6.213,1.365 V 319.91 l 187.667,187.667 c 9.449,9.449 25.607,2.757 25.607,-10.606 V 327.629 c 0,-4.844 -2.339,-9.39 -6.281,-12.206 L 357.842,231.046 492.189,96.698 c 9.449,-9.45 2.757,-25.607 -10.607,-25.607 z"
       fill="#5a91fa"
       id="path8" />
    <path
       d="M 144.567,195.5 85.32,165.877 c -3.284,-1.642 -6.909,-1.962 -10.253,-1.148 l 48.308,144.925 c 2.041,6.123 7.77,10.254 14.224,10.256 h 131.377 z"
       fill="#5a91fa"
       id="path10" />
    <path
       d="m 268.977,319.91 h 211.105 c -1.044,-1.735 -2.419,-3.277 -4.113,-4.487 L 357.841,231.046 Z"
       fill="#555af5"
       id="path12" />
  </g>
</svg>
