<?xml version="1.0" encoding="UTF-8" standalone="no"?>
<svg xmlns:dc="http://purl.org/dc/elements/1.1/" xmlns:cc="http://creativecommons.org/ns#" xmlns:rdf="http://www.w3.org/1999/02/22-rdf-syntax-ns#" xmlns:svg="http://www.w3.org/2000/svg" xmlns="http://www.w3.org/2000/svg" xmlns:sodipodi="http://sodipodi.sourceforge.net/DTD/sodipodi-0.dtd" xmlns:inkscape="http://www.inkscape.org/namespaces/inkscape" width="32" height="32" version="1.1" viewBox="0 0 32 32" id="svg7" sodipodi:docname="delete.svg" inkscape:version="1.0.1 (3bc2e813f5, 2020-09-07)">
  <metadata id="metadata11">
    <rdf:RDF>
      <cc:Work rdf:about="">
        <dc:format>image/svg+xml</dc:format>
        <dc:type rdf:resource="http://purl.org/dc/dcmitype/StillImage" />
        <dc:title />
      </cc:Work>
    </rdf:RDF>
  </metadata>
  <sodipodi:namedview pagecolor="#ffffff" bordercolor="#666666" borderopacity="1" objecttolerance="10" gridtolerance="10" guidetolerance="10" inkscape:pageopacity="0" inkscape:pageshadow="2" inkscape:window-width="2160" inkscape:window-height="1277" id="namedview9" showgrid="false" inkscape:zoom="16.241359" inkscape:cx="-8.2644614" inkscape:cy="16.16354" inkscape:window-x="0" inkscape:window-y="30" inkscape:window-maximized="1" inkscape:current-layer="svg7" inkscape:document-rotation="0" />
  <defs id="defs3">
    <style id="current-color-scheme" type="text/css">.ColorScheme-Text { color:#363636; }</style>
  </defs>
  <path d="m 14.200019,6 c -0.664801,0 -1.200003,0.5574826 -1.200003,1.2499609 v 1.249961 H 7.6000016 C 7.2676007,8.4999219 7,8.7786632 7,9.1249023 7,9.4711415 7.2676007,9.7498828 7.6000016,9.7498828 H 8.1976632 L 8.853921,23.575701 C 8.9273612,24.845036 9.9413039,26 11.251527,26 h 9.496946 c 1.310283,0 2.324166,-1.154851 2.397606,-2.424299 L 23.802337,9.7498828 h 0.597662 C 24.732399,9.7498828 25,9.4711415 25,9.1249023 25,8.7786632 24.732399,8.4999219 24.399999,8.4999219 H 18.999984 V 7.2499609 C 18.999984,6.5574826 18.464782,6 17.799981,6 h -3.60001 z m 0,1.2499609 h 3.60001 v 1.249961 h -3.60001 z M 9.4000064,9.7498828 H 22.600042 L 21.948476,23.499453 c -0.04,0.691229 -0.535202,1.249961 -1.200003,1.249961 h -9.496946 c -0.664801,0 -1.160007,-0.558732 -1.200003,-1.249961 L 9.3999584,9.7498828 Z m 3.0000076,2.4999222 c -0.3324,0 -0.600001,0.278741 -0.600001,0.62498 v 8.749727 c 0,0.346239 0.267601,0.62498 0.600001,0.62498 0.332401,0 0.600002,-0.278741 0.600002,-0.62498 v -8.749727 c 0,-0.346239 -0.267601,-0.62498 -0.600002,-0.62498 z m 3.60001,0 c -0.332401,0 -0.600002,0.278741 -0.600002,0.62498 v 8.749727 c 0,0.346239 0.267601,0.62498 0.600002,0.62498 0.332401,0 0.600002,-0.278741 0.600002,-0.62498 v -8.749727 c 0,-0.346239 -0.267601,-0.62498 -0.600002,-0.62498 z m 3.600009,0 c -0.3324,0 -0.600001,0.278741 -0.600001,0.62498 v 8.749727 c 0,0.346239 0.267601,0.62498 0.600001,0.62498 0.332402,0 0.600002,-0.278741 0.600002,-0.62498 v -8.749727 c 0,-0.346239 -0.2676,-0.62498 -0.600002,-0.62498 z" style="fill:#2073e6;fill-opacity:1;stroke-width:1.22473" class="ColorScheme-Text" id="path5" />
</svg>
