<?xml version="1.0" encoding="UTF-8" standalone="no"?>
<svg
   xmlns:dc="http://purl.org/dc/elements/1.1/"
   xmlns:cc="http://creativecommons.org/ns#"
   xmlns:rdf="http://www.w3.org/1999/02/22-rdf-syntax-ns#"
   xmlns:svg="http://www.w3.org/2000/svg"
   xmlns="http://www.w3.org/2000/svg"
   xmlns:xlink="http://www.w3.org/1999/xlink"
   xmlns:sodipodi="http://sodipodi.sourceforge.net/DTD/sodipodi-0.dtd"
   xmlns:inkscape="http://www.inkscape.org/namespaces/inkscape"
   width="64"
   height="64"
   version="1.1"
   viewBox="0 0 16.933 16.933"
   id="svg54"
   sodipodi:docname="folder-temp.svg"
   inkscape:version="1.0.1 (3bc2e813f5, 2020-09-07)">
  <metadata
     id="metadata58">
    <rdf:RDF>
      <cc:Work
         rdf:about="">
        <dc:format>image/svg+xml</dc:format>
        <dc:type
           rdf:resource="http://purl.org/dc/dcmitype/StillImage" />
        <dc:title />
      </cc:Work>
    </rdf:RDF>
  </metadata>
  <sodipodi:namedview
     pagecolor="#ffffff"
     bordercolor="#666666"
     borderopacity="1"
     objecttolerance="10"
     gridtolerance="10"
     guidetolerance="10"
     inkscape:pageopacity="0"
     inkscape:pageshadow="2"
     inkscape:window-width="1411"
     inkscape:window-height="977"
     id="namedview56"
     showgrid="false"
     inkscape:zoom="8.1206794"
     inkscape:cx="20.229667"
     inkscape:cy="41.717492"
     inkscape:window-x="509"
     inkscape:window-y="282"
     inkscape:window-maximized="0"
     inkscape:current-layer="svg54"
     inkscape:document-rotation="0" />
  <defs
     id="defs36">
    <linearGradient
       inkscape:collect="always"
       xlink:href="#linearGradient4372"
       id="linearGradient4302"
       x1="488"
       y1="514"
       x2="86"
       y2="112"
       gradientUnits="userSpaceOnUse"
       gradientTransform="translate(-3.2639999,-93.264001)" />
    <linearGradient
       inkscape:collect="always"
       id="linearGradient4372">
      <stop
         style="stop-color:#000000;stop-opacity:1"
         offset="0"
         id="stop4374" />
      <stop
         id="stop4380"
         offset="0.15026461"
         style="stop-color:#000000;stop-opacity:0" />
      <stop
         style="stop-color:#000000;stop-opacity:0.58823532"
         offset="1"
         id="stop4376" />
    </linearGradient>
    <filter
       inkscape:collect="always"
       style="color-interpolation-filters:sRGB"
       id="filter4308"
       x="-0.044689655"
       width="1.0893793"
       y="-0.05184"
       height="1.10368">
      <feGaussianBlur
         inkscape:collect="always"
         stdDeviation="8.64"
         id="feGaussianBlur4310" />
    </filter>
    <filter
       inkscape:collect="always"
       style="color-interpolation-filters:sRGB"
       id="filter4278"
       x="-0.011172414"
       width="1.0223448"
       y="-0.01296"
       height="1.02592">
      <feGaussianBlur
         inkscape:collect="always"
         stdDeviation="2.16"
         id="feGaussianBlur4280" />
    </filter>
    <linearGradient
       inkscape:collect="always"
       xlink:href="#linearGradient1769-3"
       id="linearGradient933"
       x1="-8"
       y1="302"
       x2="456"
       y2="302"
       gradientUnits="userSpaceOnUse"
       gradientTransform="matrix(0.03104687,0,0,0.02962031,1.5120001,0.11345885)" />
    <linearGradient
       id="linearGradient1769-3"
       x1="445.28"
       x2="445.28"
       y1="179.28"
       y2="200.07001"
       gradientTransform="matrix(1.4723818,0,0,1.4432032,-82.003278,175.71298)"
       gradientUnits="userSpaceOnUse">
      <stop
         stop-color="#60c0f0"
         offset="0"
         id="stop2-6" />
      <stop
         stop-color="#83d4fb"
         offset="1"
         id="stop4-7" />
    </linearGradient>
  </defs>
  <path
     style="color:#000000;display:inline;overflow:visible;visibility:visible;opacity:0.3;fill:url(#linearGradient4302);fill-opacity:1;fill-rule:nonzero;stroke:none;stroke-width:8.72471;marker:none;filter:url(#filter4308);enable-background:accumulate"
     d="m 98.72233,20.736 c -70.73706,0 -77.98633,2.4e-4 -77.98633,70.5957 v 73.25 119.3086 59 c 0,70.59546 7.24927,77.8457 77.98633,77.8457 h 308.02734 c 70.73706,0 77.98633,-7.25024 77.98633,-77.8457 v -59 -141.3086 -22 c 0,-70.59546 -7.24997,-78.16086 -77.98633,-77.8457 H 214.736 l -22,-22 z"
     id="path4236-1"
     inkscape:connector-curvature="0"
     transform="matrix(0.03104687,0,0,0.02962031,0.61983718,1.9282302)" />
  <path
     style="color:#000000;display:inline;overflow:visible;visibility:visible;opacity:0.1;fill:#000000;fill-opacity:1;fill-rule:nonzero;stroke:none;stroke-width:8.72471;marker:none;filter:url(#filter4278);enable-background:accumulate"
     d="m 98.72233,20.736 c -70.73706,0 -77.98633,2.4e-4 -77.98633,70.5957 v 73.25 119.3086 59 c 0,70.59546 7.24927,77.8457 77.98633,77.8457 h 308.02734 c 70.73706,0 77.98633,-7.25024 77.98633,-77.8457 v -59 -141.3086 -22 c 0,-70.59546 -7.24997,-78.16086 -77.98633,-77.8457 H 214.736 l -22,-22 z"
     id="path4236-5"
     inkscape:connector-curvature="0"
     transform="matrix(0.03104687,0,0,0.02962031,0.61983718,1.9282302)" />
  <path
     sodipodi:nodetypes="ssssssssccs"
     style="color:#000000;display:inline;overflow:visible;visibility:visible;fill:#46a2d7;fill-opacity:1;fill-rule:nonzero;stroke:none;stroke-width:0.264577;marker:none;enable-background:accumulate"
     d="m 3.6848797,2.4831965 c -2.1961646,0 -2.4212545,0 -2.4212545,2.0910597 v 5.7036608 c 0,2.09106 0.2250899,2.305807 2.4212545,2.305807 H 13.24812 c 2.196165,0 2.421255,-0.214747 2.421255,-2.305807 V 5.4406504 c 0,-2.0910597 -0.225111,-2.3151422 -2.421255,-2.3058071 H 7.2867189 L 6.6036878,2.4831965 Z"
     id="path4236"
     inkscape:connector-curvature="0" />
  <path
     inkscape:connector-curvature="0"
     id="rect4158"
     d="m 3.6848801,4.4380245 c -2.196165,0 -2.421255,0.214748 -2.421255,2.305807 v 5.2815715 c 0,2.09106 0.22509,2.305808 2.421255,2.305808 H 13.24812 c 2.196165,0 2.421255,-0.214748 2.421255,-2.305808 V 6.0921845 c 0,-2.091059 -0.22509,-2.305807 -2.421255,-2.305807 H 7.9542271 l -0.683517,0.651647 z"
     style="color:#000000;display:inline;overflow:visible;visibility:visible;fill:url(#linearGradient933);fill-opacity:1;fill-rule:nonzero;stroke:none;stroke-width:0.264577;marker:none;enable-background:accumulate"
     sodipodi:nodetypes="ssssssssccs" />
  <path
     style="color:#000000;display:inline;overflow:visible;visibility:visible;opacity:0.3;fill:#000000;fill-opacity:1;fill-rule:nonzero;stroke:none;stroke-width:0.264577;marker:none;enable-background:accumulate"
     d="m 1.2636252,11.966268 v 0.05924 c 0,2.09106 0.2250669,2.305815 2.4212318,2.305815 h 9.563287 c 2.196164,0 2.421231,-0.214755 2.421231,-2.305815 v -0.05924 c 0,2.091059 -0.225067,2.305814 -2.421231,2.305814 H 3.684857 c -2.1961649,0 -2.4212318,-0.214755 -2.4212318,-2.305814 z"
     id="path4216"
     inkscape:connector-curvature="0" />
  <path
     style="color:#000000;display:inline;overflow:visible;visibility:visible;opacity:0.15;fill:#ffffff;fill-opacity:1;fill-rule:nonzero;stroke:none;stroke-width:0.264577;marker:none;enable-background:accumulate"
     d="m 3.684857,2.4831965 c -2.1961645,0 -2.4212318,7.3e-6 -2.4212318,2.0910669 v 0.059241 c 0,-2.0910596 0.2250673,-2.0910669 2.4212318,-2.0910669 h 2.9188308 l 0.6830311,0.651647 h 5.9614251 c 2.196142,-0.00933 2.421231,0.2147544 2.421231,2.3058141 v -0.059241 c 0,-2.0910599 -0.225089,-2.3151494 -2.421231,-2.3058143 H 7.2867189 L 6.6036878,2.4831965 Z"
     id="path4215" />
  <path
     sodipodi:nodetypes="cccsccccccccccccccc"
     style="color:#000000;display:inline;overflow:visible;visibility:visible;opacity:0.05;fill:#ff0000;fill-opacity:0;fill-rule:nonzero;stroke:none;stroke-width:10.5831;marker:none;enable-background:accumulate"
     d="M 8.3985851,3.7864903 7.3061233,5.9089711 V 7.6639747 C 7.152754,7.8354162 6.9851225,8.0081769 6.8103436,8.1749251 6.2358795,8.7229924 5.5918252,9.2023584 5.1609784,9.3393738 L 4.4352575,8.6479245 2.2105549,9.6901893 V 14.746007 H 10.158555 V 5.3397056 C 9.679917,4.3490941 9.1536249,3.9795054 8.3985851,3.7864903 Z M 5.3695745,10.569542 c 2.23e-4,-1.45e-4 7.393e-4,1.46e-4 9.74e-4,0 -0.081055,0.04829 -0.1630266,0.09558 -0.2454644,0.142548 0.082458,-0.04697 0.1634215,-0.09426 0.2444957,-0.142548 z m -0.7480357,0.416536 c 2.464e-4,-1.23e-4 7.275e-4,1.23e-4 9.74e-4,0 -0.085126,0.0444 -0.1716462,0.08829 -0.2580772,0.13144 0.086443,-0.04315 0.1719705,-0.08704 0.2571085,-0.13144 z"
     id="path4505-6"
     inkscape:connector-curvature="0" />
  <path
     class="ColorScheme-Text"
     d="m 8.8444451,6.8789973 a 2.6458,2.6458 0 0 0 -2.6458002,2.6458 h -0.75593 l 1.1339,1.5118997 1.1339,-1.5118997 h -0.75593 a 1.8899,1.8899 0 0 1 1.8899001,-1.8899 1.8899,1.8899 0 0 1 1.8899,1.8899 1.8899,1.8899 0 0 1 -1.8899,1.8898997 v 0.75593 a 2.6458,2.6458 0 0 0 2.6458,-2.6457998 2.6458,2.6458 0 0 0 -2.6458,-2.6457999 z m -0.3779703,1.3229 v 1.6131999 l 1.2182,0.8119098 0.2093901,-0.31447 -1.0496,-0.7000196 V 8.2020173 Z"
     opacity="0.15"
     stroke-width="0.0696261"
     id="path56"
     style="opacity:0.6;fill:#ffffff;fill-opacity:1" />
</svg>
